<mxfile host="app.diagrams.net" modified="2020-10-31T00:51:32.951Z" agent="5.0 (Windows NT 10.0; Win64; x64) AppleWebKit/537.36 (KHTML, like Gecko) Chrome/86.0.4240.111 Safari/537.36" etag="5UBDRuLRhhLavFIZE2KQ" version="13.8.8" type="github">
  <diagram name="Page-1" id="f1b7ffb7-ca1e-a977-7cf5-a751b3c06c05">
    <mxGraphModel dx="1102" dy="614" grid="0" gridSize="10" guides="1" tooltips="1" connect="1" arrows="1" fold="1" page="1" pageScale="1" pageWidth="826" pageHeight="1169" background="#ffffff" math="0" shadow="0">
      <root>
        <mxCell id="0" />
        <mxCell id="1" parent="0" />
        <mxCell id="14" value="" style="verticalLabelPosition=bottom;verticalAlign=top;strokeWidth=1;shape=mxgraph.mockup.graphics.iconGrid;strokeColor=#CCCCCC;gridSize=1,1;" parent="1" vertex="1">
          <mxGeometry x="600" y="140" width="200" height="410" as="geometry" />
        </mxCell>
        <mxCell id="13" value="" style="verticalLabelPosition=bottom;verticalAlign=top;strokeWidth=1;shape=mxgraph.mockup.graphics.iconGrid;strokeColor=#CCCCCC;gridSize=1,1;" parent="1" vertex="1">
          <mxGeometry x="20" y="120" width="570" height="480" as="geometry" />
        </mxCell>
        <mxCell id="2" value="Master Service Company" style="text;spacingTop=-5;fontSize=18;fontStyle=0" parent="1" vertex="1">
          <mxGeometry x="70" y="30" width="230" height="20" as="geometry" />
        </mxCell>
        <mxCell id="3" value="" style="line;strokeWidth=1" parent="1" vertex="1">
          <mxGeometry x="20" y="60" width="780" height="10" as="geometry" />
        </mxCell>
        <mxCell id="4" value="" style="line;strokeWidth=1" parent="1" vertex="1">
          <mxGeometry x="20" y="90" width="780" height="10" as="geometry" />
        </mxCell>
        <mxCell id="5" value="Home" style="text;spacingTop=-5;" parent="1" vertex="1">
          <mxGeometry x="20" y="70.00000000000009" width="30" height="20" as="geometry" />
        </mxCell>
        <mxCell id="9" value="General Information about the company" style="text;spacingTop=-5;whiteSpace=wrap;align=left" parent="1" vertex="1">
          <mxGeometry x="20" y="150" width="530" height="250" as="geometry" />
        </mxCell>
        <mxCell id="10" value="Latest Information" style="text;spacingTop=-5;" parent="1" vertex="1">
          <mxGeometry x="610" y="120" width="30" height="20" as="geometry" />
        </mxCell>
        <mxCell id="12" value="Updates Info" style="text;spacingTop=-5;whiteSpace=wrap;align=left" parent="1" vertex="1">
          <mxGeometry x="610" y="150" width="190" height="140" as="geometry" />
        </mxCell>
        <mxCell id="15" value="More" style="text;spacingTop=-5;fontStyle=4" parent="1" vertex="1">
          <mxGeometry x="760" y="290" width="30" height="20" as="geometry" />
        </mxCell>
        <mxCell id="16" value="Yesterday" style="text;spacingTop=-5;fontStyle=0;align=right" parent="1" vertex="1">
          <mxGeometry x="760" y="310" width="30" height="20" as="geometry" />
        </mxCell>
        <mxCell id="17" value="Update Info" style="text;spacingTop=-5;whiteSpace=wrap;align=left" parent="1" vertex="1">
          <mxGeometry x="605" y="330" width="190" height="140" as="geometry" />
        </mxCell>
        <mxCell id="18" value="More" style="text;spacingTop=-5;fontStyle=4" parent="1" vertex="1">
          <mxGeometry x="755" y="470" width="30" height="20" as="geometry" />
        </mxCell>
        <mxCell id="19" value="1 week ago" style="text;spacingTop=-5;fontStyle=0;align=right" parent="1" vertex="1">
          <mxGeometry x="755" y="490" width="30" height="20" as="geometry" />
        </mxCell>
        <mxCell id="20" value="" style="verticalLabelPosition=bottom;verticalAlign=top;strokeWidth=1;shape=mxgraph.mockup.graphics.iconGrid;strokeColor=#CCCCCC;gridSize=1,1;" parent="1" vertex="1">
          <mxGeometry x="20" y="15" width="40" height="40" as="geometry" />
        </mxCell>
        <mxCell id="21" value="Company&#xa;Logo" style="text;spacingTop=-5;align=center" parent="1" vertex="1">
          <mxGeometry x="20" y="20" width="40" height="40" as="geometry" />
        </mxCell>
        <mxCell id="22" value="Contact us" style="text;spacingTop=-5;" parent="1" vertex="1">
          <mxGeometry x="99.99999999999997" y="70.00000000000026" width="30" height="20" as="geometry" />
        </mxCell>
        <mxCell id="25" value="" style="verticalLabelPosition=bottom;verticalAlign=top;strokeWidth=1;shape=mxgraph.mockup.graphics.iconGrid;strokeColor=#CCCCCC;gridSize=1,1;" parent="1" vertex="1">
          <mxGeometry x="100" y="370" width="360" height="200" as="geometry" />
        </mxCell>
        <mxCell id="26" value="Compay&#xa;Logo" style="text;spacingTop=-5;align=center;verticalAlign=middle;fontSize=36;fontColor=#CCCCCC" parent="1" vertex="1">
          <mxGeometry x="100" y="370" width="360" height="200" as="geometry" />
        </mxCell>
        <mxCell id="32" value="" style="verticalLabelPosition=bottom;verticalAlign=top;strokeWidth=1;shape=mxgraph.mockup.graphics.iconGrid;strokeColor=#CCCCCC;gridSize=1,1;" parent="1" vertex="1">
          <mxGeometry x="123" y="870" width="570" height="480" as="geometry" />
        </mxCell>
        <mxCell id="33" value="CONTACT US" style="text;spacingTop=-5;fontSize=40;" parent="1" vertex="1">
          <mxGeometry x="279" y="870" width="30" height="20" as="geometry" />
        </mxCell>
        <mxCell id="44" value="We&#39;d love to hear from you, please drop us a line if you&#39;ve any query." style="text;spacingTop=-5;" parent="1" vertex="1">
          <mxGeometry x="233.00000000000017" y="939.9999999999998" width="30" height="20" as="geometry" />
        </mxCell>
        <mxCell id="MfdbrAQ1ATSCBeJExQHh-71" value="Master Service Company" style="text;spacingTop=-5;fontSize=18;fontStyle=0" vertex="1" parent="1">
          <mxGeometry x="90" y="746" width="230" height="20" as="geometry" />
        </mxCell>
        <mxCell id="MfdbrAQ1ATSCBeJExQHh-72" value="" style="line;strokeWidth=1" vertex="1" parent="1">
          <mxGeometry x="40" y="776" width="780" height="10" as="geometry" />
        </mxCell>
        <mxCell id="MfdbrAQ1ATSCBeJExQHh-73" value="" style="line;strokeWidth=1" vertex="1" parent="1">
          <mxGeometry x="40" y="806" width="780" height="10" as="geometry" />
        </mxCell>
        <mxCell id="MfdbrAQ1ATSCBeJExQHh-74" value="Home" style="text;spacingTop=-5;" vertex="1" parent="1">
          <mxGeometry x="40" y="786.0000000000001" width="30" height="20" as="geometry" />
        </mxCell>
        <mxCell id="MfdbrAQ1ATSCBeJExQHh-76" value="Page Contact us" style="text;spacingTop=-5;" vertex="1" parent="1">
          <mxGeometry x="40" y="690.0000000000001" width="30" height="20" as="geometry" />
        </mxCell>
        <mxCell id="MfdbrAQ1ATSCBeJExQHh-77" value="" style="verticalLabelPosition=bottom;verticalAlign=top;strokeWidth=1;shape=mxgraph.mockup.graphics.iconGrid;strokeColor=#CCCCCC;gridSize=1,1;" vertex="1" parent="1">
          <mxGeometry x="40" y="731" width="40" height="40" as="geometry" />
        </mxCell>
        <mxCell id="MfdbrAQ1ATSCBeJExQHh-78" value="Company&#xa;Logo" style="text;spacingTop=-5;align=center" vertex="1" parent="1">
          <mxGeometry x="40" y="736" width="40" height="40" as="geometry" />
        </mxCell>
        <mxCell id="MfdbrAQ1ATSCBeJExQHh-79" value="Contact us" style="text;spacingTop=-5;" vertex="1" parent="1">
          <mxGeometry x="119.99999999999997" y="786.0000000000002" width="30" height="20" as="geometry" />
        </mxCell>
        <mxCell id="MfdbrAQ1ATSCBeJExQHh-86" value="NAME" style="text;spacingTop=-5;" vertex="1" parent="1">
          <mxGeometry x="233" y="1000.0000000000001" width="30" height="20" as="geometry" />
        </mxCell>
        <mxCell id="MfdbrAQ1ATSCBeJExQHh-87" value="TELEPHONE" style="text;spacingTop=-5;" vertex="1" parent="1">
          <mxGeometry x="233" y="1030" width="30" height="20" as="geometry" />
        </mxCell>
        <mxCell id="MfdbrAQ1ATSCBeJExQHh-88" value="EMAIL" style="text;spacingTop=-5;" vertex="1" parent="1">
          <mxGeometry x="233" y="1060" width="30" height="20" as="geometry" />
        </mxCell>
        <mxCell id="MfdbrAQ1ATSCBeJExQHh-89" value="MESSAGE" style="text;spacingTop=-5;" vertex="1" parent="1">
          <mxGeometry x="233" y="1090" width="30" height="20" as="geometry" />
        </mxCell>
        <mxCell id="MfdbrAQ1ATSCBeJExQHh-90" value="Submit" style="strokeWidth=1;shadow=0;dashed=0;align=center;html=1;shape=mxgraph.mockup.buttons.button;strokeColor=#666666;fontColor=#ffffff;mainText=;buttonStyle=round;fontSize=17;fontStyle=1;fillColor=#008cff;whiteSpace=wrap;" vertex="1" parent="1">
          <mxGeometry x="363" y="1260" width="130" height="40" as="geometry" />
        </mxCell>
        <mxCell id="MfdbrAQ1ATSCBeJExQHh-91" value="" style="rounded=1;whiteSpace=wrap;html=1;fontSize=40;" vertex="1" parent="1">
          <mxGeometry x="313" y="1000" width="250" height="20" as="geometry" />
        </mxCell>
        <mxCell id="MfdbrAQ1ATSCBeJExQHh-92" value="" style="rounded=1;whiteSpace=wrap;html=1;fontSize=40;" vertex="1" parent="1">
          <mxGeometry x="313" y="1030" width="250" height="20" as="geometry" />
        </mxCell>
        <mxCell id="MfdbrAQ1ATSCBeJExQHh-93" value="" style="rounded=1;whiteSpace=wrap;html=1;fontSize=40;" vertex="1" parent="1">
          <mxGeometry x="313" y="1060" width="250" height="20" as="geometry" />
        </mxCell>
        <mxCell id="MfdbrAQ1ATSCBeJExQHh-94" value="" style="rounded=1;whiteSpace=wrap;html=1;fontSize=40;" vertex="1" parent="1">
          <mxGeometry x="233" y="1120" width="400" height="120" as="geometry" />
        </mxCell>
      </root>
    </mxGraphModel>
  </diagram>
</mxfile>
